HIERARCHY
ROOT Hips
{
	OFFSET	0.000000	0.000000	0.000000
	CHANNELS 6 Xposition Yposition Zposition Zrotation Xrotation Yrotation
	JOINT LeftHip
	{
		OFFSET	4.740440	-3.195970	-0.322709
		CHANNELS 3 Zrotation Xrotation Yrotation
		JOINT LeftKnee
		{
			OFFSET	-1.605680	-15.592300	1.005510
			CHANNELS 3 Zrotation Xrotation Yrotation
			JOINT LeftAnkle
			{
				OFFSET	-0.632401	-16.421000	-1.413730
				CHANNELS 3 Zrotation Xrotation Yrotation
				End Site
				{
					OFFSET	0.008423	-2.933000	-1.684880
				}
			}
		}
	}
	JOINT RightHip
	{
		OFFSET	-4.740440	-3.195970	-0.322709
		CHANNELS 3 Zrotation Xrotation Yrotation
		JOINT RightKnee
		{
			OFFSET	1.605680	-15.592300	1.005510
			CHANNELS 3 Zrotation Xrotation Yrotation
			JOINT RightAnkle
			{
				OFFSET	0.632401	-16.421000	-1.413730
				CHANNELS 3 Zrotation Xrotation Yrotation
				End Site
				{
					OFFSET	-0.008423	-2.933000	-1.684880
				}
			}
		}
	}
	JOINT Chest
	{
		OFFSET	0.000000	3.468200	0.078401
		CHANNELS 3 Zrotation Xrotation Yrotation
		JOINT LeftCollar
		{
			OFFSET	3.857650	15.070700	-0.011583
			CHANNELS 3 Zrotation Xrotation Yrotation
			JOINT LeftShoulder
			{
				OFFSET	3.979720	-1.940530	-0.165223
				CHANNELS 3 Zrotation Xrotation Yrotation
				JOINT LeftElbow
				{
					OFFSET	0.615844	-10.986600	-0.673886
					CHANNELS 3 Zrotation Xrotation Yrotation
					JOINT LeftWrist
					{
						OFFSET	0.826843	-10.854500	1.034220
						CHANNELS 3 Zrotation Xrotation Yrotation
						End Site
						{
							OFFSET	-1.679080	-8.456540	0.936217
						}
					}
				}
			}
		}
		JOINT RightCollar
		{
			OFFSET	-3.857650	15.070700	-0.011583
			CHANNELS 3 Zrotation Xrotation Yrotation
			JOINT RightShoulder
			{
				OFFSET	-3.979720	-1.940530	-0.165223
				CHANNELS 3 Zrotation Xrotation Yrotation
				JOINT RightElbow
				{
					OFFSET	-0.615845	-10.986600	-0.673886
					CHANNELS 3 Zrotation Xrotation Yrotation
					JOINT RightWrist
					{
						OFFSET	-0.826843	-10.854500	1.034220
						CHANNELS 3 Zrotation Xrotation Yrotation
						End Site
						{
							OFFSET	1.679080	-8.456540	0.936217
						}
					}
				}
			}
		}
		JOINT Neck
		{
			OFFSET	0.000000	15.101400	0.055730
			CHANNELS 3 Zrotation Xrotation Yrotation
			JOINT Head
			{
				OFFSET	0.000000	4.185120	1.488260
				CHANNELS 3 Zrotation Xrotation Yrotation
				End Site
				{
					OFFSET	0.000000	7.773420	-0.106016
				}
			}
		}
	}
}
MOTION
Frames:     7
Frame Time: 0.016667
-11.728899	36.977814	41.470932	-4.396292	-4.490498	-11.461470	10.291578	-17.267672	9.800895	-3.405723	8.900203	0.563030	-1.974499	-0.496730	7.727078	-2.129995	20.625704	2.805325	9.123839	14.484892	7.321558	0.743253	-5.586276	-1.198034	1.222127	5.847735	7.358843	1.548518	4.398630	6.313218	2.232532	11.700134	13.584325	6.933899	-6.060484	-10.737578	18.017212	5.648067	-25.764044	-1.159403	-0.321613	4.156121	-14.213455	-6.993369	-0.457356	-1.217167	-22.114147	19.299246	-24.114155	-13.410446	17.808044	-5.836381	13.849541	4.766154	6.951197	14.149055	-1.137803	
-11.543219	37.067886	42.706184	-3.536447	-5.521091	-10.471494	7.805477	-15.496391	8.692535	-2.731985	10.034513	-0.425318	-1.367532	1.052033	8.775745	-4.250542	20.661476	1.994157	11.173325	18.408918	6.938645	1.117699	1.090972	-0.911466	0.641028	6.582970	6.713015	1.176235	4.270617	6.260034	1.313777	12.038393	14.146742	7.777662	-5.769823	-10.590221	17.781286	6.152054	-25.910088	-1.773844	-0.340635	3.779801	-12.727132	-6.169864	-0.504509	-1.942685	-19.041254	18.873886	-22.832943	-13.155742	19.217943	-7.260272	12.967936	5.136739	8.901104	14.938998	-2.296414	
-11.397499	37.012039	43.416164	-2.558101	-5.992232	-9.625529	6.033415	-15.469629	7.508991	-2.825656	12.217810	-0.927628	-0.008859	0.118839	9.662384	-6.283380	19.339546	1.723939	13.424812	23.294027	6.416210	0.511894	1.216088	-1.135275	-0.232215	6.923516	6.120952	1.040648	3.976657	6.344778	1.185441	12.179556	14.124511	7.860018	-5.416531	-10.447065	17.606783	6.319388	-26.113045	-2.000220	-0.368937	3.600309	-11.197798	-5.458414	-0.481535	-2.932884	-15.789131	18.109289	-23.558626	-15.614080	19.412710	-7.578960	12.712644	5.199661	9.443714	15.067401	-2.742330	
-11.435156	36.903976	44.029793	-1.789111	-6.443639	-9.111235	5.061147	-15.508289	8.117215	-2.990826	14.691105	-1.900697	2.316812	-0.216212	9.695287	-7.864007	17.492290	2.202273	15.450088	28.536146	5.360765	2.249390	7.490131	-1.506992	-0.782896	7.615894	6.200195	0.785756	3.507445	5.995406	1.214427	12.267498	13.960261	7.625297	-5.445502	-10.454155	15.964273	7.550166	-26.624481	-2.743334	-0.536696	3.191092	-9.314609	-4.841445	-0.670062	-3.961841	-13.816852	17.465288	-22.062927	-14.357724	21.360756	-8.184897	11.953176	5.310412	10.661702	15.255832	-4.051847	
-11.572591	36.997337	44.841278	-1.212329	-7.115619	-8.854635	4.531325	-13.620056	9.506454	-3.201800	15.347582	-3.327792	3.191979	-1.600166	9.619738	-9.017799	15.535446	2.655176	16.749851	32.372440	4.362891	3.083741	8.960177	-1.702945	-1.323401	8.358474	6.094503	0.635276	3.394688	5.906715	1.236181	12.204500	13.844583	7.453739	-5.581264	-10.401696	15.356060	7.945020	-26.920259	-3.015074	-0.557204	3.090874	-7.856222	-4.128441	-0.770464	-4.772664	-11.865943	16.800846	-22.662413	-15.791934	21.704184	-8.351172	11.770943	5.329670	10.922252	15.223799	-4.361404	
-11.570410	37.079605	45.566357	-0.759348	-8.124340	-8.703752	3.484042	-11.322141	10.320360	-2.967571	15.430854	-3.971565	5.142539	-2.468430	9.479548	-9.777049	13.850481	2.928521	18.073092	38.514877	5.326985	5.038794	14.092369	-3.463523	-1.643022	9.598262	5.895121	0.277981	3.229706	5.877405	1.300111	11.983794	13.654978	6.766395	-6.527021	-10.535667	13.411975	9.008637	-28.029306	-3.464953	-0.396087	3.102160	-6.630358	-3.682839	-0.711951	-5.320161	-9.976742	15.999166	-22.417465	-14.588735	22.232401	-8.716093	11.515880	5.481530	11.315531	15.072836	-4.821666	
-11.462671	37.175724	46.063000	-0.528433	-8.697732	-8.575736	2.437962	-9.549883	10.545588	-2.390548	14.771722	-4.158538	5.753771	-3.109515	9.258156	-10.059356	11.915597	2.708983	18.835102	41.976906	5.498288	5.223238	16.962128	-4.102117	-1.886928	10.207646	5.706532	0.166941	3.326746	5.709118	1.361372	11.639366	13.411385	6.496590	-6.794583	-10.299376	12.839891	9.263929	-28.353113	-3.479527	-0.327841	3.133182	-5.822904	-3.010805	-0.505616	-5.634960	-8.076968	15.183068	-23.263044	-15.767367	21.959415	-8.470074	11.827856	5.376521	10.976398	14.764321	-4.672251	
